<?xml version="1.0" encoding="UTF-8"?>
<svg width="78px" height="28px" viewBox="0 0 78 28" version="1.1" xmlns="http://www.w3.org/2000/svg" xmlns:xlink="http://www.w3.org/1999/xlink">
    <!-- Generator: Sketch 56.3 (81716) - https://sketch.com -->
    <title>logo_cn</title>
    <desc>Created with Sketch.</desc>
    <g id="组件" stroke="none" stroke-width="1" fill="none" fill-rule="evenodd">
        <g id="Logo_CN" fill="#23AF91" fill-rule="nonzero">
            <g id="logo_cn">
                <path d="M8.08406258,14.0055688 L16.3259082,22.2474145 L21.5327499,17.0405728 C22.4516043,16.1217184 23.9459029,16.1217184 24.8647574,17.0405728 C25.7836118,17.9594272 25.7836118,19.4537258 24.8647574,20.3725802 L17.9965526,27.2407849 C17.0776982,28.1596394 15.5741183,28.150358 14.6645452,27.2407849 L4.76133652,17.3375762 L4.76133652,23.2312384 C4.76133652,24.5213471 3.70326173,25.5887033 2.40387165,25.5887033 C1.10448157,25.5887033 0.0464067887,24.5306285 0.0464067887,23.2312384 L0.0464067887,4.78918059 C0.0464067887,3.48979051 1.10448157,2.43171573 2.40387165,2.43171573 C3.70326173,2.43171573 4.76133652,3.48979051 4.76133652,4.78918059 L4.76133652,10.6828427 L14.6645452,0.770352692 C15.5741183,-0.139220366 17.0776982,-0.148501724 17.9965526,0.770352692 L24.8647574,7.63855741 C25.7836118,8.55741183 25.7836118,10.0517104 24.8647574,10.9705648 C23.9459029,11.8894193 22.4516043,11.8894193 21.5327499,10.9705648 L16.3259082,5.76372315 L8.08406258,14.0055688 Z M16.3351896,11.6573853 C15.0357995,11.6573853 13.9777247,12.7154601 13.9777247,14.0148502 C13.9777247,15.3142403 15.0357995,16.372315 16.3351896,16.372315 C17.6345797,16.372315 18.6926545,15.3142403 18.6926545,14.0148502 C18.6926545,12.7061787 17.6345797,11.6573853 16.3351896,11.6573853 Z" id="Shape"></path>
                <path d="M76.9610183,21.4956245 L76.9610183,10.2837444 C76.9610183,10.0331477 76.7475471,9.83823919 76.5062318,9.83823919 L69.0533015,9.83823919 L69.0533015,6.62688942 C71.9583665,6.29276054 74.3343941,6.00503845 77.1559268,5.49456378 C77.7870591,5.38318748 77.8056219,5.08618404 77.6756828,4.54786529 L77.3601167,3.29488199 C77.2208963,2.73800053 76.7382657,2.83081411 76.3020419,2.90506497 C70.3062848,3.96313975 65.6470432,4.37151949 58.1012994,4.566428 C57.2474145,4.58499072 57.08035,4.73349244 57.1917263,5.55953328 L57.3495094,6.72898435 C57.4330416,7.36011668 57.9156722,7.23945903 58.3983028,7.23017767 C61.0063644,7.17448953 63.6144259,7.10952002 66.213206,6.87748608 L66.213206,9.83823919 L58.8345267,9.83823919 C58.58393,9.83823919 58.3797401,10.0424291 58.3797401,10.2837444 L58.3797401,22.2474145 C58.3797401,22.4887298 58.58393,22.702201 58.8252453,22.702201 L60.7000796,22.702201 C60.9506762,22.702201 61.1455847,22.4887298 61.1455847,22.2474145 L61.1455847,12.4741448 L66.213206,12.4741448 L66.213206,25.1246354 C66.213206,25.3659507 66.4173959,25.5794219 66.6587112,25.5794219 L68.6077963,25.5794219 C68.858393,25.5794219 69.0533015,25.3659507 69.0533015,25.1246354 L69.0533015,12.4741448 L74.1209228,12.4741448 L74.1209228,19.6764784 C74.1209228,19.899231 73.9352957,20.0755768 73.7125431,20.0755768 L72.0140546,20.0755768 C71.7727393,20.0755768 71.5592681,20.2797666 71.5592681,20.5210819 L71.5592681,22.2659772 C71.5592681,22.5165739 71.7727393,22.7114824 72.0140546,22.7114824 L75.708035,22.7114824 C76.3391673,22.7114824 76.9610183,22.0989128 76.9610183,21.4956245 Z M47.6040838,13.4579687 C47.6040838,13.2166534 47.3998939,13.0031822 47.1585786,13.0031822 L45.3858393,13.0031822 C45.1352426,13.0031822 44.9403341,13.2166534 44.9403341,13.4579687 L44.9403341,15.2771148 L41.7846725,15.2771148 C42.7128083,13.8663484 43.0562185,13.2909043 43.743039,12.0843278 L53.0615221,12.0843278 C53.3028374,12.0843278 53.5163087,11.8801379 53.5163087,11.6388226 L53.5163087,10.1630867 C53.5163087,9.91249006 53.3028374,9.71758154 53.0615221,9.71758154 L44.9032087,9.71758154 C45.014585,9.42985945 45.1259613,9.15141872 45.2373376,8.86369663 C45.4879342,8.20472023 45.4322461,8.1675948 44.782551,8.01909308 L43.2975338,7.67568284 C42.7684964,7.55502519 42.5178998,7.45293026 42.2858658,8.09334394 C42.0909573,8.64094405 41.8589234,9.16998144 41.6176081,9.70830019 L37.9793158,9.70830019 C37.7287192,9.70830019 37.5245293,9.91249006 37.5245293,10.1538054 L37.5245293,11.6295412 C37.5245293,11.8708565 37.7380005,12.0750464 37.9793158,12.0750464 C38.786794,12.0750464 39.5849907,12.0750464 40.3924688,12.0750464 C39.8077433,13.0403076 39.2508618,14.0055688 38.4897905,15.100769 C38.2763193,15.4163352 38.3041634,15.6762132 38.3691329,16.0289048 L38.5454787,17.0869796 C38.6197295,17.5324848 38.8239194,17.643861 39.4179263,17.643861 L44.9403341,17.643861 L44.9403341,19.8064174 C42.5364625,19.8064174 40.1418722,19.8064174 37.7380005,19.8064174 C37.4874039,19.8064174 37.283214,20.0106073 37.283214,20.2519226 L37.283214,21.7276584 C37.283214,21.9689737 37.4966852,22.1731636 37.7380005,22.1731636 L44.9403341,22.1731636 L44.9403341,25.1246354 C44.9403341,25.375232 45.144524,25.5794219 45.3858393,25.5794219 L47.1585786,25.5794219 C47.3998939,25.5794219 47.6040838,25.3659507 47.6040838,25.1246354 L47.6040838,22.1638823 L53.6648104,22.1638823 C53.9061257,22.1638823 54.1195969,21.9596924 54.1195969,21.7183771 L54.1195969,20.2426412 C54.1195969,19.9920446 53.9061257,19.797136 53.6648104,19.797136 C51.6414744,19.797136 49.6274198,19.797136 47.6040838,19.797136 L47.6040838,17.6345797 C49.1726333,17.6345797 50.7319014,17.6345797 52.3004508,17.6345797 C52.5417661,17.6345797 52.7552373,17.4303898 52.7552373,17.1890745 L52.7552373,15.7133386 C52.7552373,15.462742 52.5417661,15.2678335 52.3004508,15.2678335 L47.6133652,15.2678335 L47.6133652,13.4579687 L47.6040838,13.4579687 Z M33.9790506,4.9191196 C33.9790506,4.66852294 34.1925219,4.47361443 34.4338372,4.47361443 L42.8427473,4.47361443 L42.3786794,3.0071599 C42.2765845,2.68231238 42.4436489,2.44099708 42.7777778,2.44099708 L44.754707,2.44099708 C45.2187749,2.44099708 45.3858393,2.48740387 45.5157783,2.92362768 L45.9984089,4.47361443 L53.655529,4.47361443 C53.9061257,4.47361443 54.1103156,4.6778043 54.1103156,4.9191196 L54.1103156,6.5433572 C54.1103156,6.7846725 53.8968443,6.98886237 53.655529,6.98886237 C48.0217449,6.98886237 42.3786794,6.98886237 36.7448953,6.98886237 L36.7448953,14.8872978 C36.7448953,20.5953328 36.4757359,22.3216653 34.4988067,25.1431981 C34.24821,25.4958897 33.988332,25.4680456 33.6634845,25.2731371 L32.2155927,24.3821268 C31.9093079,24.1964996 31.835057,24.0201538 32.094935,23.5932113 C33.7098913,20.9016176 33.9604879,20.1869531 33.9604879,15.3884911 L33.9604879,4.9191196 L33.9790506,4.9191196 Z" id="Shape"></path>
            </g>
        </g>
    </g>
</svg>